<?xml version="1.0" encoding="utf-8"?>
<!-- Generator: Adobe Illustrator 22.0.1, SVG Export Plug-In . SVG Version: 6.00 Build 0)  -->
<svg version="1.1" id="Layer_1" xmlns="http://www.w3.org/2000/svg" xmlns:xlink="http://www.w3.org/1999/xlink" x="0px" y="0px"
	 viewBox="0 0 32 32" style="enable-background:new 0 0 32 32;" xml:space="preserve">
<style type="text/css">
	.st0{fill:#917A1C;}
	.st1{fill:#6CA965;}
	.st2{fill:#C8B653;}
	.st3{fill:#787C7F;}
</style>
<g id="Layer_2_1_">
</g>
<g id="Layer_3">
</g>
<g id="try1">
	<path class="st0" d="M22.3,28c0.3-0.2,0.6-0.3,0.9-0.4c0-0.1,0-0.3,0.1-0.5c0.7-4.4,6.3-9,6.3-9l1.4-2l0-0.9c0,0-0.2-0.5-0.6-0.5
		c-0.3-0.1-5.3,1.7-8.1,9C22.3,25.3,22.1,26.8,22.3,28C22.3,28.1,22.3,28,22.3,28z"/>
	<path class="st1" d="M5.6,5.8c0,0-7.3,9.4,0.8,10.4c8.6,1.8,17.9-9.8,17.9-9.8s4.3-0.1,4.9,4.4C29.8,15.3,6.8,27.6,2,17.1
		C-0.4,11.8,4.9,5.7,5.6,5.8z"/>
	<path class="st2" d="M31.1,15.4c-1.1,4.5-15,14.2-23.4,12.1S1.3,15.3,1.3,15.3c-2.5,10.3,5.1,14.4,9.2,15c4.9,0.1,8.7-0.8,11.7-2.1
		c0.1,0,0.2-0.1,0.3-0.1c0.3-0.2,0.7-0.4,1-0.5c4.7-2.4,6.7-5.4,7.2-5.9c0.7-0.7,1-2,1-2S31.9,16.7,31.1,15.4z"/>
	<path class="st2" d="M30.8,13.9"/>
	<path class="st3" d="M7.5,5.1c0.8,0,1.3-0.2,2.8-1c1.4-0.8,1.5-1.9,1.3-2.2c-0.9-0.6-3.4,1.8-5,3.7S6.4,8.5,6.4,8.5s0.9,0.2,2.4,0
		c6.5-1.4,7.8-4.6,8.7-5.9c0.7-1.4,0.2-1.2,0.2-1.2S13.7,2.8,16,1.7c2.3-1.1,4.3-0.3,6,0.6c0.8,1.4-1.3,3-3.7,5.3
		C13,12.2,7.4,11.4,5.8,10.8C3.2,8.6,6.7,4.9,8.4,3.2C10.3,1.7,11,1.8,11,1.8s2-0.3,2.4,0.1c1,1.1-3.1,3.2-4.9,3.9
		c-1.1,0-1.2-0.4-1.2-0.4L7.5,5.1z"/>
	<g>
		<g>
			<path class="st3" d="M6.8,8.6C6.4,8.6,6,8.3,5.6,7.9C5.5,7.7,5.2,8.1,5.5,8.3C5.9,8.7,6.3,9.1,6.9,9C7.1,9,7.1,8.5,6.8,8.6
				L6.8,8.6z"/>
		</g>
	</g>
	<g>
		<g>
			<path class="st3" d="M5.3,10c0.2,0.3,0.4,0.7,0.7,0.7c0.2,0,0.2-0.3,0.1-0.3c-0.3,0-0.5-0.5-0.6-0.6C5.4,9.7,5.2,9.9,5.3,10
				L5.3,10z"/>
		</g>
	</g>
	<g>
		<g>
			<path class="st3" d="M17.6,3.1c0.1-0.2,0.2-0.4,0.4-0.6c0.1-0.2-0.1-0.4-0.2-0.2c-0.1,0.2-0.2,0.4-0.4,0.6
				C17.3,3,17.5,3.2,17.6,3.1L17.6,3.1z"/>
		</g>
	</g>
</g>
</svg>
