<svg xmlns="http://www.w3.org/2000/svg" width="499.67" height="499.67" viewBox="0 0 499.67 499.67"><title>guess-icon</title><rect x="8.5" y="8.5" width="482.67" height="482.67" rx="12" ry="12" fill="none" stroke="#000" stroke-miterlimit="10" stroke-width="50"/><path d="M170.64,114.78v65.44s31-28.8,69.79-28.48,34.24,35.67,34.24,35.67-.22,17.45-19.13,34.22-59.17,42.44-41.2,99.9h57.18a43.1,43.1,0,0,1,2.5-44.68c6.86-8.22,6.05-9.3,32-30.35,18.08-18.62,29.95-28.6,35.08-52.89,1.89-10.79,8.1-38.31-11.33-66.11s-59.64-31.3-59.64-31.3S215.3,87.76,170.64,114.78Z"/><ellipse cx="246.83" cy="380.88" rx="40.27" ry="35.62"/></svg>