<?xml version="1.0" encoding="utf-8"?>
<!-- Generator: Adobe Illustrator 22.0.1, SVG Export Plug-In . SVG Version: 6.00 Build 0)  -->
<svg version="1.1" id="try1" xmlns="http://www.w3.org/2000/svg" xmlns:xlink="http://www.w3.org/1999/xlink" x="0px" y="0px"
	 viewBox="0 0 500 500" style="enable-background:new 0 0 500 500;" xml:space="preserve">
<style type="text/css">
	.st0{fill:#917A1C;}
	.st1{fill:url(#SVGID_1_);}
	.st2{fill:url(#SVGID_2_);}
	.st3{fill:#C8B653;}
	.st4{fill:url(#SVGID_3_);}
	.st5{fill:#787C7F;}
	.st6{fill:#111111;}
</style>
<path class="st0" d="M480.1,199.9c0,0-4.7-5.3-11.6-6.2c-5.1-1-77.8,34.7-98.2,136.1c6.3,51.5,15.4,107.2,62.1,107.2
	c-11.6-7.2-36.4-5.2-38.2-64.6s71.9-132.8,71.9-132.8l17.3-29L480.1,199.9"/>
<linearGradient id="SVGID_1_" gradientUnits="userSpaceOnUse" x1="14.617" y1="225.66" x2="449.7245" y2="225.66">
	<stop  offset="0" style="stop-color:#001300"/>
	<stop  offset="0.6352" style="stop-color:#6CA965"/>
</linearGradient>
<path class="st1" d="M62.1,139.2c0,0-93.2,135.9,38.1,135.6c140.7,8.8,259.5-160.1,259.5-160.1s67.7-8.8,89.1,49.7
	s-313.3,259-415,130.3C-18.7,228.3,52.1,138.6,62.1,139.2z"/>
<linearGradient id="SVGID_2_" gradientUnits="userSpaceOnUse" x1="8.6389" y1="320.6846" x2="500.6592" y2="320.6846">
	<stop  offset="0" style="stop-color:#020000"/>
	<stop  offset="0.7094" style="stop-color:#C8B653"/>
</linearGradient>
<path class="st2" d="M9.1,265.6c0,0-0.5,135.7,139.2,144.5c139.7,8.8,327.9-147.8,331.8-210.2c16.1,15.5,20.6,55.4,20.6,55.4
	s-1.7,18.4-10.4,29.4s-68,130.3-290.4,156.6C134.1,442.4,0.2,406.3,9.1,265.6z"/>
<path class="st3" d="M480.1,199.9"/>
<linearGradient id="SVGID_3_" gradientUnits="userSpaceOnUse" x1="57.5641" y1="131.6874" x2="317.3606" y2="131.6874">
	<stop  offset="0" style="stop-color:#020000"/>
	<stop  offset="0.6329" style="stop-color:#787C7F"/>
</linearGradient>
<path class="st4" d="M89.3,127.7c12.1-1.2,19.4-5.3,41.2-17.5c19.4-13.3,19.2-26.9,15.9-30.6c-17.1-6.6-48.9,29-70.3,58.2
	c-20.8,28.3,3.2,36.8,3.2,36.8s15-0.1,38.8-4.1c100.7-31.8,112-75.6,124.1-93.4c7.2-19.6-1-16.6-1-16.6s-58.2,25.9-24.5,7
	s67.4-11.8,96.3-2.5c15,17-12.7,42.3-46.4,76.7c-72,70.1-163.2,69.4-188.3,63.3c-48.1-23.6-1.1-78.2,21-103.9
	c25-23.5,37.6-24.2,37.6-24.2s31.5-7.5,38.3-3.6c18.2,13.2-42.1,47.5-67.4,59.9c-17.8,4.9-21.4-1.8-21.4-1.8L89.3,127.7z"/>
<g>
	<g>
		<path class="st5" d="M244,82.1c1.3-2.9,2.6-5.9,3.9-8.8c1-2.3-2.4-4.4-3.5-2c-1.3,2.9-2.6,5.9-3.9,8.8
			C239.5,82.4,243,84.4,244,82.1L244,82.1z"/>
	</g>
</g>
<g>
	<g>
		<path class="st6" d="M82.8,174.5c-3.8,0.3-6.8-1.6-10.5-2.4c-2.5-0.5-3.6,3.3-1.1,3.9c4,0.9,7.3,2.8,11.5,2.5
			C85.4,178.3,85.4,174.3,82.8,174.5L82.8,174.5z"/>
	</g>
</g>
</svg>
