<?xml version="1.0" encoding="utf-8"?>
<!-- Generator: Adobe Illustrator 22.0.1, SVG Export Plug-In . SVG Version: 6.00 Build 0)  -->
<svg version="1.1" id="try1" xmlns="http://www.w3.org/2000/svg" xmlns:xlink="http://www.w3.org/1999/xlink" x="0px" y="0px"
	 viewBox="0 0 500 500" style="enable-background:new 0 0 500 500;" xml:space="preserve">
<style type="text/css">
	.st0{fill:#917A1C;}
	.st1{fill:#6CA965;}
	.st2{fill:#C8B653;}
	.st3{fill:#787C7F;}
</style>
<path class="st0" d="M480.1,199.9c0,0-4.7-5.3-11.6-6.2c-5.1-1-77.8,34.7-98.2,136.1c6.3,51.5,15.4,107.2,62.1,107.2
	c-11.6-7.2-36.4-5.2-38.2-64.6s71.9-132.8,71.9-132.8l17.3-29L480.1,199.9"/>
<path class="st1" d="M62.1,139.2c0,0-93.2,135.9,38.1,135.6c140.7,8.8,259.5-160.1,259.5-160.1s67.7-8.8,89.1,49.7
	s-313.3,259-415,130.3C-18.7,228.3,52.1,138.6,62.1,139.2z"/>
<path class="st2" d="M9.1,265.6c0,0-0.5,135.7,139.2,144.5c139.7,8.8,327.9-147.8,331.8-210.2c16.1,15.5,20.6,55.4,20.6,55.4
	s-1.7,18.4-10.4,29.4s-68,130.3-290.4,156.6C134.1,442.4,0.2,406.3,9.1,265.6z"/>
<path class="st2" d="M480.1,199.9"/>
<path class="st3" d="M89.3,127.7c12.1-1.2,19.4-5.3,41.2-17.5c19.4-13.3,19.2-26.9,15.9-30.6c-17.1-6.6-48.9,29-70.3,58.2
	c-20.8,28.3,3.2,36.8,3.2,36.8s15-0.1,38.8-4.1c100.7-31.8,112-75.6,124.1-93.4c7.2-19.6-1-16.6-1-16.6s-58.2,25.9-24.5,7
	s67.4-11.8,96.3-2.5c15,17-12.7,42.3-46.4,76.7c-72,70.1-163.2,69.4-188.3,63.3c-48.1-23.6-1.1-78.2,21-103.9
	c25-23.5,37.6-24.2,37.6-24.2s31.5-7.5,38.3-3.6c18.2,13.2-42.1,47.5-67.4,59.9c-17.8,4.9-21.4-1.8-21.4-1.8L89.3,127.7z"/>
<g>
	<g>
		<path class="st3" d="M87.5,174.3c-7.1,1.2-13.5-2.5-19.4-5.9c-3.4-1.9-6.4,3.3-3,5.2c7.5,4.3,15.1,8,24,6.5
			C92.9,179.4,91.3,173.6,87.5,174.3L87.5,174.3z"/>
	</g>
</g>
<g>
	<g>
		<path class="st3" d="M145.7,79.5c0,0,0.4,0.3,0.2,0.2c-0.2-0.1,0.1,0.1,0.1,0.1c0.2,0.2,0.4,0.4,0.7,0.6c0.4,0.4,0.8,0.8,1.1,1.2
			c0.7,0.8,2.2,0.7,2.8,0c0.8-0.9,0.7-2,0-2.8c-0.9-1.1-1.9-2-3-2.8c-0.9-0.6-2.3-0.2-2.7,0.7C144.4,77.8,144.8,78.8,145.7,79.5
			L145.7,79.5z"/>
	</g>
</g>
<g>
	<g>
		<path class="st3" d="M66.6,196.2c3.4,3.8,8.3,9,13.8,8.7c2.6-0.1,2.6-4.1,0-4c-4.2,0.2-8.4-4.6-11-7.5
			C67.7,191.5,64.8,194.3,66.6,196.2L66.6,196.2z"/>
	</g>
</g>
<g>
	<g>
		<path class="st3" d="M244,82.1c1.3-2.9,2.6-5.9,3.9-8.8c1-2.3-2.4-4.4-3.5-2c-1.3,2.9-2.6,5.9-3.9,8.8
			C239.5,82.4,243,84.4,244,82.1L244,82.1z"/>
	</g>
</g>
</svg>
