<?xml version="1.0" encoding="utf-8"?>
<!-- Generator: Adobe Illustrator 22.0.1, SVG Export Plug-In . SVG Version: 6.00 Build 0)  -->
<svg version="1.1" xmlns="http://www.w3.org/2000/svg" xmlns:xlink="http://www.w3.org/1999/xlink" x="0px" y="0px"
	 viewBox="0 0 32 32" style="enable-background:new 0 0 32 32;" xml:space="preserve">
<style type="text/css">
	.st0{fill:#917A1C;}
	.st1{fill:#6CA965;}
	.st2{fill:#C8B653;}
	.st3{fill:#787C7F;}
</style>
<g id="Layer_2">
</g>
<g id="Layer_3">
</g>
<g id="try1">
	<path class="st0" d="M21.8,28.8c0.3-0.2,0.6-0.3,0.9-0.4c0-0.1,0-0.3,0.1-0.5c0.9-4.6,6.6-9.2,6.6-9.2l1.5-2l0-0.9
		c0,0-0.2-0.5-0.6-0.6c-0.3-0.1-5.3,1.6-8.3,9.1C21.9,25.9,21.7,27.5,21.8,28.8C21.8,28.9,21.8,28.8,21.8,28.8z"/>
	<path class="st1" d="M6.1,4.9c0,0-7.6,9.5,0.4,10.9c8.4,2.2,18-9.6,18-9.6s4.2,0.1,4.7,4.8c0.5,4.8-22.7,16.7-27,5.6
		C0,10.9,5.5,4.7,6.1,4.9z"/>
	<path class="st2" d="M31,15.9c-1.3,4.7-15.3,14.3-23.6,11.7c-8.3-2.6-5.9-13-5.9-13c-2.9,10.7,4.5,15.3,8.5,16.1
		c4.8,0.3,8.6-0.5,11.6-1.7c0.1,0,0.2-0.1,0.3-0.1c0.3-0.2,0.7-0.4,1-0.5c4.7-2.3,6.8-5.4,7.3-5.9c0.7-0.7,1.1-2.1,1.1-2.1
		S31.7,17.3,31,15.9z"/>
	<path class="st2" d="M30.7,14.3"/>
	<path class="st3" d="M8,4.2c0.8,0,1.3-0.2,2.8-0.9c1.4-0.8,1.6-1.9,1.4-2.2c-0.9-0.7-3.4,1.7-5.1,3.7c-1.7,2-0.3,2.9-0.3,2.9
		s0.9,0.2,2.4,0.1C15.7,6.6,17.1,3.3,18,2c0.7-1.4,0.2-1.3,0.2-1.3S14.3,2.1,16.6,1s4.3-0.1,5.9,0.9c0.7,1.5-1.4,3.1-3.9,5.4
		c-5.4,4.6-10.9,3.5-12.4,2.8C3.7,7.7,7.3,4,9,2.3c1.9-1.5,2.6-1.4,2.6-1.4s2-0.2,2.4,0.2c0.9,1.2-3.2,3.2-5,3.9
		C7.9,5,7.8,4.5,7.8,4.5L8,4.2z"/>
	<g>
		<g>
			<path class="st3" d="M7.2,7.8c-0.4,0-0.8-0.3-1.1-0.7C6,6.9,5.7,7.3,5.9,7.5c0.4,0.4,0.8,0.8,1.4,0.8C7.5,8.3,7.5,7.8,7.2,7.8
				L7.2,7.8z"/>
		</g>
	</g>
	<g>
		<g>
			<path class="st3" d="M12.2,1.1C12.2,1.1,12.2,1.2,12.2,1.1C12.2,1.1,12.2,1.2,12.2,1.1C12.2,1.2,12.2,1.2,12.2,1.1
				c0.1,0.1,0.1,0.2,0.1,0.2c0,0.1,0.1,0.1,0.2,0c0.1-0.1,0.1-0.1,0-0.2c0-0.1-0.1-0.2-0.1-0.3c0-0.1-0.1,0-0.2,0
				C12.1,1,12.1,1.1,12.2,1.1L12.2,1.1z"/>
		</g>
	</g>
	<g>
		<g>
			<path class="st3" d="M5.7,9.3c0.2,0.3,0.4,0.8,0.7,0.8c0.2,0,0.2-0.3,0.1-0.3C6.2,9.8,6,9.3,5.9,9.1C5.8,8.9,5.6,9.1,5.7,9.3
				L5.7,9.3z"/>
		</g>
	</g>
	<g>
		<g>
			<path class="st3" d="M18.1,2.5c0.1-0.2,0.2-0.4,0.4-0.6c0.1-0.2-0.1-0.4-0.2-0.2c-0.1,0.2-0.2,0.4-0.4,0.6
				C17.8,2.4,18,2.6,18.1,2.5L18.1,2.5z"/>
		</g>
	</g>
</g>
</svg>
