<?xml version="1.0" encoding="utf-8"?>
<!-- Generator: Adobe Illustrator 22.0.1, SVG Export Plug-In . SVG Version: 6.00 Build 0)  -->
<svg version="1.1" xmlns="http://www.w3.org/2000/svg" xmlns:xlink="http://www.w3.org/1999/xlink" x="0px" y="0px"
	 viewBox="0 0 500 500" style="enable-background:new 0 0 500 500;" xml:space="preserve">
<style type="text/css">
	.st0{display:none;}
	.st1{display:inline;fill:#7F702F;}
	.st2{display:inline;fill:#6CA965;}
	.st3{display:inline;fill:#C8B653;}
	.st4{display:inline;fill:#787C7F;}
	.st5{display:inline;}
	.st6{fill:#787C7F;}
	.st7{fill:#917A1C;}
	.st8{fill:#6CA965;}
	.st9{fill:#C8B653;}
</style>
<g id="Layer_1" class="st0">
	
		<image style="display:inline;overflow:visible;opacity:0.8;" width="510" height="657" xlink:href="free for all.jpg"  transform="matrix(2.0776 0 0 2.0776 -208 -450)">
	</image>
</g>
<g id="Layer_3" class="st0">
	<path class="st1" d="M476.5,168c0,0-5-5-12-5.5c-5.2-0.7-75.5,39.5-89.5,142c9.5,51,9.5,84.5,57,88c-12-6.5-29-17.5-30.5-47
		s63.5-137,63.5-137l15.5-30L476.5,168"/>
</g>
<g id="Layer_2" class="st0">
	<path class="st2" d="M55.5,133.5c0,0-84.5,141.5,46.5,133c141,0,249-176,249-176s67-13,92,44s-296.5,278.1-406,156
		C-19.5,227.5,45.5,133.5,55.5,133.5z"/>
	<path class="st3" d="M10.5,263c0,0,8,135.5,148,135.5s318-168,318-230.5c17,14.5,24,54,24,54s-0.5,18.5-8.5,30
		s-59.7,134.3-280,174.5C146.3,431.7,10.5,404,10.5,263z"/>
	<path class="st3" d="M476.5,168"/>
	<path class="st4" d="M82,120.3c12-2,19-6.5,40-20c18.5-14.5,17.5-28,14-31.5c-17.5-5.5-47,32-66.5,62.5c-19,29.5,5.5,36.5,5.5,36.5
		s15-1,38.5-6.5c98.5-38,107-82.5,118-101c6-20-2-16.5-2-16.5s-56.5,29.5-24,8.5s66.5-16,96-8.5c16,16-10,43-41.5,79.5
		c-67.5,74.5-158.5,79.5-184,75c-49.5-20.5-6-78,14.5-105c23.5-25,36-26.5,36-26.5s31-9.5,38-6c19,12-39,50-63.5,64
		c-17.5,6-21.5-0.5-21.5-0.5L82,120.3z"/>
</g>
<g id="touchups" class="st0">
	<g class="st5">
		<g>
			<path class="st6" d="M83.3,166.9c-7,1.6-13.6-1.5-19.7-4.5c-3.5-1.7-6.5,3.5-3,5.2c7.7,3.8,15.6,7.2,24.4,5.1
				C88.6,171.8,87,166,83.3,166.9L83.3,166.9z"/>
		</g>
	</g>
	<g class="st5">
		<g>
			<path class="st6" d="M135.1,68.6c0.2,0.1,0.5,0.3,0.7,0.5c0,0,0.3,0.2,0.2,0.1c-0.2-0.1,0.2,0.2,0.2,0.2c0.4,0.4,0.8,0.8,1.2,1.2
				c0.7,0.8,2.1,0.8,2.8,0c0.8-0.8,0.8-2,0-2.8c-0.9-1-2-1.9-3.1-2.6c-0.9-0.6-2.2-0.2-2.7,0.7C133.9,66.8,134.2,68,135.1,68.6
				L135.1,68.6z"/>
		</g>
	</g>
	<g class="st5">
		<g>
			<path class="st6" d="M63.5,190c3.6,3.6,8.8,8.5,14.3,7.9c2.5-0.3,2.6-4.3,0-4c-4.3,0.4-8.7-3.9-11.5-6.7
				C64.5,185.4,61.6,188.2,63.5,190L63.5,190z"/>
		</g>
	</g>
	<g class="st5">
		<g>
			<path class="st6" d="M233.7,64.8c1.1-3,2.2-6,3.4-9c0.9-2.4-3-3.5-3.9-1.1c-1.1,3-2.2,6-3.4,9C228.9,66.1,232.8,67.2,233.7,64.8
				L233.7,64.8z"/>
		</g>
	</g>
</g>
<g id="try1">
	<path class="st7" d="M480.1,199.9c0,0-4.7-5.3-11.6-6.2c-5.1-1-77.8,34.7-98.2,136.1c6.3,51.5,15.4,107.2,62.1,107.2
		c-11.6-7.2-36.4-5.2-38.2-64.6s71.9-132.8,71.9-132.8l17.3-29L480.1,199.9"/>
	<path class="st8" d="M62.1,139.2c0,0-93.2,135.9,38.1,135.6c140.7,8.8,259.5-160.1,259.5-160.1s67.7-8.8,89.1,49.7
		s-313.3,259-415,130.3C-18.7,228.3,52.1,138.6,62.1,139.2z"/>
	<path class="st9" d="M9.1,265.6c0,0-0.5,135.7,139.2,144.5c139.7,8.8,327.9-147.8,331.8-210.2c16.1,15.5,20.6,55.4,20.6,55.4
		s-1.7,18.4-10.4,29.4s-68,130.3-290.4,156.6C134.1,442.4,0.2,406.3,9.1,265.6z"/>
	<path class="st9" d="M480.1,199.9"/>
	<path class="st6" d="M89.3,127.7c12.1-1.2,19.4-5.3,41.2-17.5c19.4-13.3,19.2-26.9,15.9-30.6c-17.1-6.6-48.9,29-70.3,58.2
		c-20.8,28.3,3.2,36.8,3.2,36.8s15-0.1,38.8-4.1c100.7-31.8,112-75.6,124.1-93.4c7.2-19.6-1-16.6-1-16.6s-58.2,25.9-24.5,7
		s67.4-11.8,96.3-2.5c15,17-12.7,42.3-46.4,76.7c-72,70.1-163.2,69.4-188.3,63.3c-48.1-23.6-1.1-78.2,21-103.9
		c25-23.5,37.6-24.2,37.6-24.2s31.5-7.5,38.3-3.6c18.2,13.2-42.1,47.5-67.4,59.9c-17.8,4.9-21.4-1.8-21.4-1.8L89.3,127.7z"/>
	<g>
		<g>
			<path class="st6" d="M87.5,174.3c-7.1,1.2-13.5-2.5-19.4-5.9c-3.4-1.9-6.4,3.3-3,5.2c7.5,4.3,15.1,8,24,6.5
				C92.9,179.4,91.3,173.6,87.5,174.3L87.5,174.3z"/>
		</g>
	</g>
	<g>
		<g>
			<path class="st6" d="M145.7,79.5c0,0,0.4,0.3,0.2,0.2c-0.2-0.1,0.1,0.1,0.1,0.1c0.2,0.2,0.4,0.4,0.7,0.6c0.4,0.4,0.8,0.8,1.1,1.2
				c0.7,0.8,2.2,0.7,2.8,0c0.8-0.9,0.7-2,0-2.8c-0.9-1.1-1.9-2-3-2.8c-0.9-0.6-2.3-0.2-2.7,0.7C144.4,77.8,144.8,78.8,145.7,79.5
				L145.7,79.5z"/>
		</g>
	</g>
	<g>
		<g>
			<path class="st6" d="M66.6,196.2c3.4,3.8,8.3,9,13.8,8.7c2.6-0.1,2.6-4.1,0-4c-4.2,0.2-8.4-4.6-11-7.5
				C67.7,191.5,64.8,194.3,66.6,196.2L66.6,196.2z"/>
		</g>
	</g>
	<g>
		<g>
			<path class="st6" d="M244,82.1c1.3-2.9,2.6-5.9,3.9-8.8c1-2.3-2.4-4.4-3.5-2c-1.3,2.9-2.6,5.9-3.9,8.8
				C239.5,82.4,243,84.4,244,82.1L244,82.1z"/>
		</g>
	</g>
</g>
</svg>
